<svg viewBox="0 0 310 310" width="300" height="310" role="img" xmlns="http://www.w3.org/2000/svg">
  <title>Pipeline Health Monitor icon</title>
  <desc>Pipeline run flow with status check in Zaratuk brand green</desc>

  <rect width="300" height="300" fill="#FFFFFF"/>

  <ellipse cx="78" cy="104" rx="34" ry="16" fill="none" stroke="#8DC63F" stroke-width="10"/>
  <path d="M44,104 L44,174 C44,183 59,190 78,190 C97,190 112,183 112,174 L112,104" fill="none" stroke="#8DC63F" stroke-width="10" stroke-linejoin="round"/>
  <path d="M44,174 C44,165 59,158 78,158 C97,158 112,165 112,174" fill="none" stroke="#8DC63F" stroke-width="10"/>

  <circle cx="150" cy="145" r="46" fill="none" stroke="#8DC63F" stroke-width="11"/>
  <path d="M136,119 L176,145 L136,171 Z" fill="none" stroke="#252525" stroke-width="9" stroke-linejoin="round" opacity="0.8"/>

  <ellipse cx="222" cy="104" rx="34" ry="16" fill="none" stroke="#8DC63F" stroke-width="10"/>
  <path d="M188,104 L188,174 C188,183 203,190 222,190 C241,190 256,183 256,174 L256,104" fill="none" stroke="#8DC63F" stroke-width="10" stroke-linejoin="round"/>
  <path d="M188,174 C188,165 203,158 222,158 C241,158 256,165 256,174" fill="none" stroke="#8DC63F" stroke-width="10"/>

  <path d="M119,145 H103" fill="none" stroke="#252525" stroke-width="9" stroke-linecap="round" opacity="0.75"/>
  <path d="M197,145 H181" fill="none" stroke="#252525" stroke-width="9" stroke-linecap="round" opacity="0.75"/>
  <path d="M105,132 L119,145 L105,158" fill="none" stroke="#252525" stroke-width="9" stroke-linecap="round" stroke-linejoin="round" opacity="0.75"/>
  <path d="M183,132 L197,145 L183,158" fill="none" stroke="#252525" stroke-width="9" stroke-linecap="round" stroke-linejoin="round" opacity="0.75"/>

  <path d="M210,145 L222,158 L242,128" fill="none" stroke="#252525" stroke-width="9" stroke-linecap="round" stroke-linejoin="round" opacity="0.8"/>
</svg>
